# xmcd CD database file
#
# Track frame offsets:
#	150
#	12557
#	27288
#	42980
#	57196
#	70780
#	81916
#	93117
#	101392
#	114251
#	123570
#	137038
#	149132
#	163202
#	172715
#	188300
#	204526
#	221868
#	235948
#	253667
#	278154
#	294261
#	317097
#
# Disc length: 4509 seconds
#
# Revision: 0
# Processed by: cddbd v1.5.2PL0 Copyright (c) Steve Scherf et al.
# Submitted via: CDex 1.51
#
DISCID=4a119b17
DTITLE=Oscar Peterson - Plays the Jimmy McHugh Songbook
DYEAR=1959
DGENRE=Jazz
TTITLE0=You´re a Sweetheart
TTITLE1=Lost in a Fog
TTITLE2=I Cant´t believe that you´re in Love with me
TTITLE3=On the sunny side of the Street
TTITLE4=Diga Diga Doo
TTITLE5=I feel a song comin´ on
TTITLE6=I´m in the mood for love
TTITLE7=When my sugar walks down the street
TTITLE8=Don´t blame me
TTITLE9=I can´t give you anything but love
TTITLE10=Can´t get out of this mood
TTITLE11=I couldn´t sleep a wink last night
TTITLE12=I can´t get you anything but love
TTITLE13=Lovely to look at
TTITLE14=When my sugar walks down the street
TTITLE15=I can´t believe that you´re in love with me
TTITLE16=On the sunny side of the street
TTITLE17=don´t blame me
TTITLE18=I´m in the mood for love
TTITLE19=I can´t give you anything but love
TTITLE20=I couldn´t sleep a wink last night
TTITLE21=Diga Diga Doo
TTITLE22=You´re a sweetheart
EXTD=YEAR: 1959
EXTT0=
EXTT1=
EXTT2=
EXTT3=
EXTT4=
EXTT5=
EXTT6=
EXTT7=
EXTT8=
EXTT9=
EXTT10=
EXTT11=
EXTT12=
EXTT13=
EXTT14=
EXTT15=
EXTT16=
EXTT17=
EXTT18=
EXTT19=
EXTT20=
EXTT21=
EXTT22=
PLAYORDER=
